<?xml version="1.0" encoding="utf-8"?>
<!-- Generator: Adobe Illustrator 16.0.4, SVG Export Plug-In . SVG Version: 6.00 Build 0)  -->
<!DOCTYPE svg PUBLIC "-//W3C//DTD SVG 1.1//EN" "http://www.w3.org/Graphics/SVG/1.1/DTD/svg11.dtd">
<svg version="1.1" id="Layer_1" xmlns="http://www.w3.org/2000/svg" xmlns:xlink="http://www.w3.org/1999/xlink" x="0px" y="0px"
	 width="60px" height="60px" viewBox="0 0 60 60" enable-background="new 0 0 60 60" xml:space="preserve">
<g display="none">
	<path display="inline" fill="#FFFFFF" d="M19.367,21.372c0.474,0.367,0.573,1.063,0.218,1.555
		c-0.352,0.492-1.021,0.592-1.494,0.226c-0.473-0.366-0.57-1.061-0.219-1.552C18.226,21.108,18.896,21.006,19.367,21.372z"/>
	<path display="inline" fill="#FFFFFF" d="M19.486,24.232c0.298,0.23,0.359,0.667,0.136,0.976c-0.22,0.309-0.641,0.373-0.938,0.142
		c-0.297-0.23-0.358-0.667-0.136-0.976C18.77,24.066,19.189,24.001,19.486,24.232z"/>
</g>
<path fill="#7CBC50" d="M29.958,15.964c0,4.834-4.754,8.755-10.62,8.755c-5.861,0-10.614-3.92-10.614-8.755
	c0-4.835,4.752-8.755,10.614-8.755C25.204,7.209,29.958,11.129,29.958,15.964z"/>
<path fill="#7CBC50" d="M52.133,15.964c0,4.834-4.755,8.755-10.616,8.755c-5.864,0-10.617-3.92-10.617-8.755
	c0-4.835,4.752-8.755,10.617-8.755C47.378,7.209,52.133,11.129,52.133,15.964z"/>
<path fill="#7CBC50" d="M56.241,32.689c0,9.931-11.769,17.978-26.281,17.978c-14.516,0-26.283-8.047-26.283-17.978
	c0-9.929,11.768-17.978,26.283-17.978C44.474,14.712,56.241,22.761,56.241,32.689z"/>
<ellipse fill="#FFFFFF" cx="19.34" cy="18.639" rx="6.106" ry="6.427"/>
<path fill="#010101" d="M23.147,21.432c0,2.213-1.704,4.008-3.808,4.008c-2.102,0-3.806-1.794-3.806-4.008
	c0-2.215,1.704-4.008,3.806-4.008C21.444,17.423,23.147,19.216,23.147,21.432z"/>
<g>
	<path fill="#FFFFFF" d="M18.643,19.482c0.468,0.367,0.565,1.063,0.215,1.556c-0.346,0.491-1.008,0.592-1.475,0.225
		c-0.466-0.366-0.563-1.061-0.215-1.552C17.516,19.219,18.178,19.116,18.643,19.482z"/>
	<path fill="#FFFFFF" d="M18.761,22.342c0.293,0.229,0.354,0.667,0.134,0.976c-0.218,0.308-0.633,0.372-0.926,0.143
		c-0.293-0.23-0.353-0.667-0.134-0.976C18.053,22.176,18.468,22.111,18.761,22.342z"/>
</g>
<ellipse fill="#FFFFFF" cx="40.623" cy="18.639" rx="6.104" ry="6.427"/>
<path fill="#010101" d="M36.816,21.432c0,2.213,1.703,4.008,3.805,4.008c2.104,0,3.808-1.794,3.808-4.008
	c0-2.215-1.703-4.008-3.808-4.008C38.52,17.423,36.816,19.216,36.816,21.432z"/>
<g>
	<path fill="#FFFFFF" d="M41.318,19.482c-0.466,0.367-0.563,1.063-0.215,1.556c0.35,0.491,1.011,0.592,1.479,0.225
		c0.465-0.366,0.562-1.061,0.215-1.552C42.447,19.219,41.785,19.116,41.318,19.482z"/>
	<path fill="#FFFFFF" d="M41.203,22.342c-0.293,0.229-0.354,0.667-0.135,0.976c0.218,0.308,0.632,0.372,0.924,0.143
		c0.296-0.23,0.354-0.667,0.137-0.976C41.909,22.176,41.495,22.111,41.203,22.342L41.203,22.342z"/>
</g>
<ellipse fill="#010101" cx="29.504" cy="40.064" rx="4.06" ry="4.443"/>
</svg>
