<?xml version="1.0" encoding="utf-8"?>
<!-- Generator: Adobe Illustrator 16.0.4, SVG Export Plug-In . SVG Version: 6.00 Build 0)  -->
<!DOCTYPE svg PUBLIC "-//W3C//DTD SVG 1.1//EN" "http://www.w3.org/Graphics/SVG/1.1/DTD/svg11.dtd">
<svg version="1.1" id="Layer_1" xmlns="http://www.w3.org/2000/svg" xmlns:xlink="http://www.w3.org/1999/xlink" x="0px" y="0px"
	 width="60px" height="60px" viewBox="0 0 60 60" enable-background="new 0 0 60 60" xml:space="preserve">
<path fill="#7CBC50" d="M30.831,17.854c0,4.835-4.816,8.756-10.759,8.756c-5.939,0-10.755-3.92-10.755-8.756
	c0-4.836,4.815-8.756,10.755-8.756C26.015,9.097,30.831,13.018,30.831,17.854z"/>
<path fill="#7CBC50" d="M53.299,17.854c0,4.835-4.815,8.756-10.756,8.756c-5.942,0-10.758-3.92-10.758-8.756
	c0-4.836,4.815-8.756,10.758-8.756C48.482,9.097,53.299,13.018,53.299,17.854z"/>
<path fill="#7CBC50" d="M57.461,34.582c0,9.93-11.923,17.98-26.627,17.98c-14.707,0-26.63-8.051-26.63-17.98
	c0-9.931,11.923-17.981,26.63-17.981C45.539,16.602,57.461,24.651,57.461,34.582z"/>
<ellipse fill="#FFFFFF" cx="20.074" cy="20.529" rx="6.186" ry="6.428"/>
<path fill="#010101" d="M23.931,23.321c0,2.214-1.727,4.008-3.856,4.008c-2.131,0-3.857-1.794-3.857-4.008
	c0-2.214,1.727-4.009,3.857-4.009C22.204,19.312,23.931,21.106,23.931,23.321z"/>
<g>
	<path fill="#FFFFFF" d="M19.367,21.372c0.474,0.367,0.573,1.063,0.218,1.555c-0.352,0.492-1.021,0.592-1.494,0.226
		c-0.473-0.366-0.57-1.061-0.219-1.552C18.226,21.108,18.896,21.006,19.367,21.372z"/>
	<path fill="#FFFFFF" d="M19.486,24.232c0.298,0.23,0.359,0.667,0.136,0.976c-0.22,0.309-0.641,0.373-0.938,0.142
		c-0.297-0.23-0.358-0.667-0.136-0.976C18.77,24.066,19.189,24.001,19.486,24.232z"/>
</g>
<ellipse fill="#FFFFFF" cx="41.637" cy="20.529" rx="6.187" ry="6.428"/>
<path fill="#010101" d="M37.78,23.321c0,2.214,1.726,4.008,3.855,4.008c2.131,0,3.857-1.794,3.857-4.008
	c0-2.214-1.727-4.009-3.857-4.009C39.506,19.312,37.78,21.106,37.78,23.321z"/>
<g>
	<path fill="#FFFFFF" d="M42.344,21.372c-0.475,0.367-0.572,1.063-0.219,1.555c0.353,0.492,1.022,0.592,1.496,0.226
		c0.472-0.366,0.57-1.061,0.218-1.552C43.485,21.108,42.816,21.006,42.344,21.372z"/>
	<path fill="#FFFFFF" d="M42.225,24.232c-0.297,0.23-0.358,0.667-0.137,0.976c0.221,0.309,0.641,0.373,0.938,0.142
		c0.298-0.23,0.359-0.667,0.138-0.976C42.941,24.066,42.521,24.001,42.225,24.232L42.225,24.232z"/>
</g>
<path fill="#010101" d="M20.311,36.734c0.236,4.178,5.879,7.223,9.41,7.094c5.195-0.188,8.699-3.184,10.971-7.894
	c0.219-0.451-0.681-0.415-0.843-0.079c-1.961,4.064-4.771,6.861-9.298,7.319c-3.394,0.343-9.116-2.547-9.352-6.688
	C21.178,36.104,20.286,36.314,20.311,36.734z"/>
<path fill="#010101" d="M39.053,34.762c0.905,0.846,1.596,1.926,2.895,2.095c0.216,0.027,0.46-0.025,0.629-0.175
	c0.134-0.119,0.108-0.289-0.08-0.314c-1.163-0.15-1.806-1.205-2.617-1.963C39.652,34.192,38.82,34.545,39.053,34.762z"/>
<path fill="#010101" d="M18.859,36.208c1.548,0.03,3.162,0.451,4.532-0.533c0.372-0.267-0.521-0.151-0.683-0.036
	c-0.888,0.637-2.26,0.202-3.274,0.183C19.242,35.817,18.417,36.199,18.859,36.208z"/>
</svg>
