<?xml version="1.0" encoding="utf-8"?>
<!-- Generator: Adobe Illustrator 16.0.4, SVG Export Plug-In . SVG Version: 6.00 Build 0)  -->
<!DOCTYPE svg PUBLIC "-//W3C//DTD SVG 1.1//EN" "http://www.w3.org/Graphics/SVG/1.1/DTD/svg11.dtd">
<svg version="1.1" id="Layer_1" xmlns="http://www.w3.org/2000/svg" xmlns:xlink="http://www.w3.org/1999/xlink" x="0px" y="0px"
	 width="60px" height="60px" viewBox="0 0 60 60" enable-background="new 0 0 60 60" xml:space="preserve">
<g display="none">
	<path display="inline" fill="#FFFFFF" d="M19.367,21.372c0.474,0.367,0.573,1.063,0.218,1.555
		c-0.352,0.492-1.021,0.592-1.494,0.226c-0.473-0.366-0.57-1.061-0.219-1.552C18.226,21.108,18.896,21.006,19.367,21.372z"/>
	<path display="inline" fill="#FFFFFF" d="M19.486,24.232c0.298,0.23,0.359,0.667,0.136,0.976c-0.22,0.309-0.641,0.373-0.938,0.142
		c-0.297-0.23-0.358-0.667-0.136-0.976C18.77,24.066,19.189,24.001,19.486,24.232z"/>
</g>
<path fill="#7CBC50" d="M30.082,15.986c0,4.738-4.637,8.58-10.358,8.58c-5.718,0-10.354-3.842-10.354-8.58
	c0-4.739,4.636-8.581,10.354-8.581C25.444,7.405,30.082,11.247,30.082,15.986L30.082,15.986z"/>
<path fill="#7CBC50" d="M51.711,15.986c0,4.738-4.636,8.58-10.354,8.58c-5.721,0-10.356-3.842-10.356-8.58
	c0-4.739,4.636-8.581,10.356-8.581C47.075,7.405,51.711,11.247,51.711,15.986z"/>
<path fill="#7CBC50" d="M55.718,32.379c0,9.731-11.479,17.62-25.634,17.62c-14.158,0-25.636-7.889-25.636-17.62
	s11.479-17.62,25.636-17.62C44.24,14.759,55.718,22.647,55.718,32.379z"/>
<ellipse fill="#FFFFFF" cx="19.725" cy="18.608" rx="5.955" ry="6.3"/>
<path fill="#010101" d="M23.438,21.344c0,2.169-1.662,3.928-3.712,3.928c-2.052,0-3.713-1.758-3.713-3.928
	c0-2.17,1.662-3.929,3.713-3.929C21.776,17.416,23.438,19.173,23.438,21.344z"/>
<g>
	<path fill="#FFFFFF" d="M19.044,19.434c0.457,0.359,0.552,1.042,0.21,1.524c-0.339,0.482-0.983,0.581-1.439,0.221
		c-0.455-0.359-0.549-1.04-0.21-1.521C17.946,19.175,18.591,19.075,19.044,19.434z"/>
	<path fill="#FFFFFF" d="M19.16,22.236c0.286,0.226,0.346,0.654,0.131,0.957c-0.211,0.302-0.617,0.365-0.903,0.139
		c-0.286-0.225-0.345-0.653-0.131-0.956C18.469,22.074,18.874,22.011,19.16,22.236z"/>
</g>
<ellipse fill="#FFFFFF" cx="40.483" cy="18.608" rx="5.956" ry="6.3"/>
<path fill="#010101" d="M36.771,21.344c0,2.169,1.662,3.928,3.713,3.928s3.712-1.758,3.712-3.928c0-2.17-1.661-3.929-3.712-3.929
	S36.771,19.173,36.771,21.344z"/>
<g>
	<path fill="#FFFFFF" d="M41.164,19.434c-0.456,0.359-0.551,1.042-0.21,1.524c0.339,0.482,0.983,0.581,1.439,0.221
		c0.454-0.359,0.55-1.04,0.211-1.521C42.264,19.175,41.619,19.075,41.164,19.434z"/>
	<path fill="#FFFFFF" d="M41.05,22.236c-0.286,0.226-0.346,0.654-0.132,0.957c0.213,0.302,0.617,0.365,0.902,0.139
		c0.286-0.225,0.346-0.653,0.133-0.956C41.739,22.074,41.335,22.011,41.05,22.236L41.05,22.236z"/>
</g>
<path fill="#010101" d="M39.881,41.472c-0.091-2.885-5.416-5.248-8.816-5.328c-5.001-0.119-8.469,1.774-10.809,4.907
	c-0.225,0.3,0.641,0.317,0.808,0.094c2.019-2.701,4.814-4.493,9.182-4.591c3.274-0.075,8.682,2.187,8.771,5.047
	C39.025,41.865,39.89,41.762,39.881,41.472L39.881,41.472z"/>
<path fill="#010101" d="M21.779,42.178c-0.832-0.872-1.445-1.961-2.685-2.188c-0.206-0.038-0.444,0.002-0.613,0.141
	c-0.134,0.11-0.118,0.278,0.062,0.312c1.112,0.202,1.681,1.265,2.424,2.046C21.175,42.707,21.991,42.4,21.779,42.178z"/>
<path fill="#010101" d="M41.876,40.758c-1.452,0.344-3.132,0.072-3.989,2.007c-0.233,0.522,0.549,0.113,0.65-0.114
	c0.556-1.253,2.017-0.898,2.968-1.123C41.686,41.484,42.291,40.66,41.876,40.758L41.876,40.758z"/>
</svg>
