<?xml version="1.0" encoding="utf-8"?>
<!-- Generator: Adobe Illustrator 16.0.4, SVG Export Plug-In . SVG Version: 6.00 Build 0)  -->
<!DOCTYPE svg PUBLIC "-//W3C//DTD SVG 1.1//EN" "http://www.w3.org/Graphics/SVG/1.1/DTD/svg11.dtd">
<svg version="1.1" id="Layer_1" xmlns="http://www.w3.org/2000/svg" xmlns:xlink="http://www.w3.org/1999/xlink" x="0px" y="0px"
	 width="60px" height="60px" viewBox="0 0 60 60" enable-background="new 0 0 60 60" xml:space="preserve">
<g display="none">
	<path display="inline" fill="#FFFFFF" d="M19.367,21.372c0.474,0.367,0.573,1.063,0.218,1.555
		c-0.352,0.492-1.021,0.592-1.494,0.226c-0.473-0.366-0.57-1.061-0.219-1.552C18.226,21.108,18.896,21.006,19.367,21.372z"/>
	<path display="inline" fill="#FFFFFF" d="M19.486,24.232c0.298,0.23,0.359,0.667,0.136,0.976c-0.22,0.309-0.641,0.373-0.938,0.142
		c-0.297-0.23-0.358-0.667-0.136-0.976C18.77,24.066,19.189,24.001,19.486,24.232z"/>
</g>
<path fill="#7CBC50" d="M29.083,19.1c0,4.389-4.372,7.947-9.766,7.947c-5.392,0-9.762-3.558-9.762-7.947
	c0-4.39,4.371-7.948,9.762-7.948C24.71,11.152,29.083,14.71,29.083,19.1L29.083,19.1z"/>
<path fill="#7CBC50" d="M49.475,19.1c0,4.389-4.37,7.947-9.762,7.947c-5.394,0-9.764-3.558-9.764-7.947
	c0-4.39,4.371-7.948,9.764-7.948C45.104,11.152,49.475,14.71,49.475,19.1z"/>
<path fill="#7CBC50" d="M53.253,34.283c0,9.013-10.821,16.319-24.168,16.319c-13.349,0-24.171-7.307-24.171-16.319
	c0-9.013,10.823-16.32,24.171-16.32C42.432,17.963,53.253,25.27,53.253,34.283L53.253,34.283z"/>
<path fill="#010101" d="M13.806,20.424c0,0,0.005-6.067-2.476-6.772c0,0,2.972,0.395,3.095,2.89c0,0-0.042-3.095-0.632-3.587
	c0,0,2.308,1.585,1.415,3.162c0,0,1.312-2.244-0.025-3.23c0,0,1.8,0.67,1.547,2.387c0,0,5.803-0.314,5.803,1.635"/>
<ellipse fill="#FFFFFF" cx="19.318" cy="21.528" rx="5.615" ry="5.835"/>
<path fill="#010101" d="M22.819,24.061c0,2.01-1.567,3.639-3.5,3.639c-1.934,0-3.501-1.629-3.501-3.639s1.567-3.638,3.501-3.638
	C21.252,20.422,22.819,22.051,22.819,24.061z"/>
<g>
	<path fill="#FFFFFF" d="M18.677,22.293c0.43,0.333,0.52,0.964,0.198,1.412c-0.319,0.446-0.926,0.538-1.357,0.204
		C17.089,23.578,17,22.947,17.319,22.5C17.641,22.054,18.25,21.961,18.677,22.293L18.677,22.293z"/>
	<path fill="#FFFFFF" d="M18.785,24.889c0.27,0.209,0.326,0.605,0.123,0.886c-0.199,0.28-0.582,0.338-0.851,0.129
		c-0.27-0.208-0.325-0.605-0.124-0.886C18.134,24.738,18.515,24.68,18.785,24.889z"/>
</g>
<path fill="#010101" d="M44.402,20.424c0,0-0.006-6.067,2.476-6.772c0,0-2.973,0.395-3.095,2.89c0,0,0.043-3.095,0.632-3.587
	c0,0-2.309,1.585-1.414,3.162c0,0-1.311-2.244,0.026-3.23c0,0-1.802,0.67-1.549,2.387c0,0-5.803-0.314-5.803,1.635"/>
<ellipse fill="#FFFFFF" cx="38.891" cy="21.528" rx="5.614" ry="5.835"/>
<path fill="#010101" d="M35.389,24.061c0,2.01,1.567,3.639,3.501,3.639c1.933,0,3.501-1.629,3.501-3.639s-1.568-3.638-3.501-3.638
	C36.956,20.422,35.389,22.051,35.389,24.061z"/>
<g>
	<path fill="#FFFFFF" d="M39.531,22.293c-0.429,0.333-0.519,0.964-0.198,1.412c0.32,0.446,0.928,0.538,1.358,0.204
		c0.428-0.332,0.517-0.962,0.197-1.409C40.567,22.054,39.96,21.961,39.531,22.293L39.531,22.293z"/>
	<path fill="#FFFFFF" d="M39.423,24.889c-0.269,0.209-0.325,0.605-0.123,0.886c0.2,0.28,0.582,0.338,0.852,0.129
		c0.269-0.208,0.324-0.605,0.124-0.886C40.074,24.738,39.693,24.68,39.423,24.889L39.423,24.889z"/>
</g>
<path fill="#EE5EA2" d="M36.625,11.356c-0.317-0.281-1.042-0.185-1.446-0.307c-0.619-0.159-1.223-0.411-1.834-0.708
	c-1.063-0.452-2.073-1.189-3.185-1.493c-0.343,0.998-0.332,2.085,0.199,3.084c0.35,0.591,0.883,0.907,1.028,1.688
	c0.125,0.695-0.283,1.074-0.345,1.681c-0.044,0.511,0.481,1.147,0.993,1.196c0.815,0.107,1.275-1.103,1.731-1.63
	c0.726-0.96,1.521-1.803,2.238-2.806c0.153-0.223,0.3-0.488,0.542-0.687"/>
<path fill="#EE5EA2" d="M37.207,11.207c0.154-0.404,0.838-0.672,1.139-0.976c0.478-0.443,0.894-0.96,1.302-1.52
	c0.734-0.918,1.293-2.062,2.138-2.872c0.752,0.714,1.234,1.681,1.217,2.821c-0.043,0.693-0.37,1.232-0.146,1.993
	c0.204,0.674,0.736,0.81,1.064,1.315c0.271,0.43,0.091,1.248-0.337,1.542c-0.674,0.492-1.625-0.352-2.266-0.595
	c-1.075-0.495-2.158-0.85-3.242-1.388c-0.237-0.119-0.484-0.283-0.789-0.34"/>
<path fill="#EE5EA2" d="M36.679,9.465c-0.531,0.139-1.046,0.176-1.244,0.799c-0.229,0.677,0.191,0.806,0.251,1.409
	c0.057,0.604-0.442,0.876,0.218,1.275c0.445,0.218,1.151,0.083,1.562-0.024c1.035-0.22,2.182-0.708,1.58-2.122
	c-0.338-0.863-1.703-1.842-2.58-1.329"/>
<path fill="#010101" d="M38.321,42.703c-0.085-2.671-5.106-4.86-8.312-4.935c-4.716-0.111-7.985,1.644-10.191,4.544
	c-0.212,0.278,0.605,0.296,0.762,0.089c1.903-2.503,4.539-4.161,8.657-4.253c3.086-0.068,8.185,2.024,8.269,4.674
	C37.515,43.068,38.33,42.973,38.321,42.703L38.321,42.703z"/>
<path fill="#010101" d="M21.254,43.358c-0.784-0.807-1.362-1.815-2.532-2.025c-0.194-0.035-0.418,0.002-0.578,0.131
	c-0.126,0.103-0.111,0.257,0.059,0.288c1.048,0.188,1.584,1.172,2.286,1.895C20.686,43.849,21.455,43.565,21.254,43.358z"/>
<path fill="#010101" d="M40.203,42.045c-1.369,0.317-2.952,0.065-3.761,1.857c-0.221,0.484,0.517,0.104,0.612-0.105
	c0.524-1.16,1.901-0.832,2.799-1.04C40.023,42.718,40.595,41.953,40.203,42.045L40.203,42.045z"/>
</svg>
