<?xml version="1.0" encoding="utf-8"?>
<!-- Generator: Adobe Illustrator 16.0.4, SVG Export Plug-In . SVG Version: 6.00 Build 0)  -->
<!DOCTYPE svg PUBLIC "-//W3C//DTD SVG 1.1//EN" "http://www.w3.org/Graphics/SVG/1.1/DTD/svg11.dtd">
<svg version="1.1" id="Layer_1" xmlns="http://www.w3.org/2000/svg" xmlns:xlink="http://www.w3.org/1999/xlink" x="0px" y="0px"
	 width="60px" height="60px" viewBox="0 0 60 60" enable-background="new 0 0 60 60" xml:space="preserve">
<g display="none">
	<path display="inline" fill="#FFFFFF" d="M19.367,21.372c0.474,0.367,0.573,1.063,0.218,1.555
		c-0.352,0.492-1.021,0.592-1.494,0.226c-0.473-0.366-0.57-1.061-0.219-1.552C18.226,21.108,18.896,21.006,19.367,21.372z"/>
	<path display="inline" fill="#FFFFFF" d="M19.486,24.232c0.298,0.23,0.359,0.667,0.136,0.976c-0.22,0.309-0.641,0.373-0.938,0.142
		c-0.297-0.23-0.358-0.667-0.136-0.976C18.77,24.066,19.189,24.001,19.486,24.232z"/>
</g>
<path fill="#7CBC50" d="M29.489,16.389c0,4.843-4.824,8.769-10.776,8.769c-5.949,0-10.771-3.926-10.771-8.769
	s4.822-8.77,10.771-8.77C24.665,7.619,29.489,11.546,29.489,16.389z"/>
<path fill="#7CBC50" d="M51.99,16.389c0,4.843-4.822,8.769-10.771,8.769c-5.951,0-10.774-3.926-10.774-8.769s4.823-8.77,10.774-8.77
	C47.168,7.619,51.99,11.546,51.99,16.389z"/>
<path fill="#7CBC50" d="M56.16,33.144c0,9.946-11.941,18.009-26.669,18.009c-14.73,0-26.671-8.062-26.671-18.009
	c0-9.946,11.942-18.009,26.671-18.009C44.22,15.135,56.16,23.198,56.16,33.144L56.16,33.144z"/>
<path fill="#010101" d="M12.632,17.851c0,0,0.006-6.695-2.732-7.474c0,0,3.28,0.436,3.414,3.189c0,0-0.046-3.415-0.696-3.959
	c0,0,2.547,1.75,1.561,3.489c0,0,1.448-2.475-0.028-3.564c0,0,1.987,0.74,1.708,2.633c0,0,6.404-0.347,6.404,1.805"/>
<ellipse fill="#FFFFFF" cx="18.715" cy="19.069" rx="6.195" ry="6.438"/>
<path fill="#010101" d="M22.578,21.863c0,2.218-1.729,4.016-3.863,4.016c-2.135,0-3.863-1.797-3.863-4.016s1.729-4.015,3.863-4.015
	C20.849,17.848,22.578,19.646,22.578,21.863z"/>
<g>
	<path fill="#FFFFFF" d="M18.007,19.914c0.475,0.367,0.574,1.064,0.219,1.557c-0.353,0.493-1.023,0.593-1.498,0.226
		c-0.473-0.367-0.571-1.063-0.218-1.555C16.864,19.649,17.535,19.547,18.007,19.914L18.007,19.914z"/>
	<path fill="#FFFFFF" d="M18.126,22.777c0.297,0.231,0.359,0.669,0.136,0.978c-0.22,0.309-0.643,0.373-0.939,0.142
		c-0.297-0.23-0.359-0.667-0.136-0.977C17.408,22.611,17.829,22.547,18.126,22.777z"/>
</g>
<path fill="#010101" d="M46.394,17.851c0,0-0.007-6.695,2.731-7.474c0,0-3.279,0.436-3.414,3.189c0,0,0.048-3.415,0.696-3.959
	c0,0-2.545,1.75-1.559,3.489c0,0-1.447-2.475,0.027-3.564c0,0-1.986,0.74-1.707,2.633c0,0-6.404-0.347-6.404,1.805"/>
<ellipse fill="#FFFFFF" cx="40.312" cy="19.069" rx="6.195" ry="6.438"/>
<path fill="#010101" d="M36.448,21.863c0,2.218,1.729,4.016,3.862,4.016c2.135,0,3.863-1.797,3.863-4.016s-1.729-4.015-3.863-4.015
	C38.178,17.848,36.448,19.646,36.448,21.863z"/>
<g>
	<path fill="#FFFFFF" d="M41.02,19.914c-0.475,0.367-0.573,1.064-0.22,1.557c0.354,0.493,1.025,0.593,1.498,0.226
		c0.473-0.367,0.573-1.063,0.219-1.555C42.162,19.649,41.492,19.547,41.02,19.914L41.02,19.914z"/>
	<path fill="#FFFFFF" d="M40.9,22.777c-0.298,0.231-0.359,0.669-0.138,0.978c0.222,0.309,0.643,0.373,0.94,0.142
		c0.298-0.23,0.359-0.667,0.137-0.977C41.618,22.611,41.197,22.547,40.9,22.777L40.9,22.777z"/>
</g>
<path fill="#EE5EA2" d="M37.812,7.845c-0.351-0.31-1.151-0.204-1.598-0.338c-0.683-0.175-1.348-0.454-2.023-0.781
	c-1.172-0.499-2.286-1.312-3.514-1.647c-0.378,1.101-0.366,2.301,0.219,3.404c0.385,0.652,0.974,1,1.134,1.862
	c0.138,0.767-0.312,1.185-0.38,1.854c-0.05,0.564,0.531,1.267,1.097,1.321c0.898,0.117,1.405-1.217,1.909-1.798
	c0.803-1.06,1.681-1.99,2.47-3.097c0.172-0.245,0.33-0.538,0.598-0.757"/>
<path fill="#EE5EA2" d="M38.455,7.68c0.17-0.446,0.923-0.742,1.255-1.077c0.527-0.489,0.986-1.06,1.437-1.677
	c0.812-1.013,1.427-2.275,2.359-3.169c0.831,0.787,1.362,1.854,1.343,3.112c-0.047,0.765-0.407,1.36-0.161,2.199
	c0.224,0.744,0.812,0.894,1.173,1.451c0.3,0.475,0.102,1.378-0.371,1.702c-0.742,0.542-1.791-0.389-2.497-0.657
	c-1.188-0.546-2.383-0.938-3.58-1.531c-0.262-0.132-0.533-0.313-0.87-0.376"/>
<path fill="#EE5EA2" d="M37.871,5.758c-0.586,0.153-1.154,0.194-1.374,0.882c-0.252,0.748,0.214,0.889,0.277,1.555
	c0.064,0.666-0.487,0.966,0.242,1.407c0.489,0.241,1.271,0.091,1.723-0.026c1.143-0.243,2.406-0.781,1.745-2.341
	c-0.373-0.953-1.882-2.033-2.85-1.467"/>
<path fill="#010101" d="M18.951,35.3c0.237,4.184,5.889,7.233,9.426,7.104c5.203-0.188,8.712-3.188,10.988-7.904
	c0.219-0.453-0.682-0.417-0.845-0.08c-1.964,4.07-4.779,6.873-9.313,7.33c-3.398,0.344-9.13-2.551-9.365-6.697
	C19.821,34.667,18.928,34.879,18.951,35.3L18.951,35.3z"/>
<path fill="#010101" d="M37.724,33.324c0.907,0.848,1.598,1.929,2.898,2.098c0.216,0.026,0.461-0.026,0.63-0.175
	c0.134-0.12,0.11-0.29-0.08-0.315c-1.164-0.151-1.81-1.206-2.621-1.966C38.323,32.754,37.49,33.107,37.724,33.324z"/>
<path fill="#010101" d="M17.499,34.772c1.55,0.03,3.167,0.452,4.54-0.534c0.372-0.267-0.522-0.153-0.685-0.036
	c-0.889,0.638-2.263,0.202-3.279,0.183C17.881,34.382,17.055,34.764,17.499,34.772L17.499,34.772z"/>
</svg>
