<?xml version="1.0" encoding="utf-8"?>
<!-- Generator: Adobe Illustrator 16.0.4, SVG Export Plug-In . SVG Version: 6.00 Build 0)  -->
<!DOCTYPE svg PUBLIC "-//W3C//DTD SVG 1.1//EN" "http://www.w3.org/Graphics/SVG/1.1/DTD/svg11.dtd">
<svg version="1.1" id="Layer_1" xmlns="http://www.w3.org/2000/svg" xmlns:xlink="http://www.w3.org/1999/xlink" x="0px" y="0px"
	 width="60px" height="60px" viewBox="0 0 60 60" enable-background="new 0 0 60 60" xml:space="preserve">
<g display="none">
	<path display="inline" fill="#FFFFFF" d="M19.367,21.372c0.474,0.367,0.573,1.063,0.218,1.555
		c-0.352,0.492-1.021,0.592-1.494,0.226c-0.473-0.366-0.57-1.061-0.219-1.552C18.226,21.108,18.896,21.006,19.367,21.372z"/>
	<path display="inline" fill="#FFFFFF" d="M19.486,24.232c0.298,0.23,0.359,0.667,0.136,0.976c-0.22,0.309-0.641,0.373-0.938,0.142
		c-0.297-0.23-0.358-0.667-0.136-0.976C18.77,24.066,19.189,24.001,19.486,24.232z"/>
</g>
<path fill="#7CBC50" d="M30.578,17.093c0,4.584-4.807,8.301-10.738,8.301c-5.928,0-10.734-3.716-10.734-8.301
	c0-4.585,4.806-8.302,10.734-8.302C25.771,8.791,30.578,12.507,30.578,17.093z"/>
<path fill="#7CBC50" d="M53.002,17.093c0,4.584-4.807,8.301-10.734,8.301c-5.931,0-10.737-3.716-10.737-8.301
	c0-4.585,4.807-8.302,10.737-8.302C48.195,8.791,53.002,12.507,53.002,17.093z"/>
<path fill="#7CBC50" d="M57.157,32.953c0,9.416-11.9,17.047-26.576,17.047C15.902,50,4.002,42.369,4.002,32.953
	s11.9-17.048,26.579-17.048C45.257,15.905,57.157,23.537,57.157,32.953L57.157,32.953z"/>
<path fill="#010101" d="M13.781,18.476c0,0,0.005-6.338-2.723-7.075c0,0,3.269,0.412,3.402,3.019c0,0-0.046-3.233-0.694-3.748
	c0,0,2.538,1.656,1.555,3.303c0,0,1.443-2.343-0.027-3.375c0,0,1.979,0.7,1.701,2.493c0,0,6.382-0.329,6.382,1.708"/>
<ellipse fill="#FFFFFF" cx="19.841" cy="19.629" rx="6.174" ry="6.094"/>
<path fill="#010101" d="M23.691,22.274c0,2.1-1.723,3.801-3.85,3.801c-2.126,0-3.85-1.701-3.85-3.801c0-2.1,1.724-3.8,3.85-3.8
	C21.968,18.474,23.691,20.175,23.691,22.274z"/>
<g>
	<path fill="#FFFFFF" d="M19.136,20.428c0.474,0.348,0.572,1.008,0.218,1.475c-0.352,0.466-1.02,0.562-1.492,0.214
		c-0.472-0.348-0.569-1.006-0.218-1.472C17.998,20.178,18.666,20.082,19.136,20.428L19.136,20.428z"/>
	<path fill="#FFFFFF" d="M19.255,23.14c0.297,0.219,0.358,0.633,0.136,0.925c-0.219,0.292-0.64,0.354-0.937,0.135
		c-0.295-0.217-0.357-0.631-0.136-0.925C18.54,22.982,18.958,22.921,19.255,23.14z"/>
</g>
<path fill="#010101" d="M47.425,18.476c0,0-0.008-6.338,2.722-7.075c0,0-3.268,0.412-3.403,3.019c0,0,0.047-3.233,0.694-3.748
	c0,0-2.537,1.656-1.555,3.303c0,0-1.439-2.343,0.028-3.375c0,0-1.979,0.7-1.701,2.493c0,0-6.383-0.329-6.383,1.708"/>
<ellipse fill="#FFFFFF" cx="41.363" cy="19.629" rx="6.174" ry="6.094"/>
<path fill="#010101" d="M37.513,22.274c0,2.1,1.725,3.801,3.85,3.801c2.127,0,3.849-1.701,3.849-3.801c0-2.1-1.722-3.8-3.849-3.8
	C39.237,18.474,37.513,20.175,37.513,22.274z"/>
<g>
	<path fill="#FFFFFF" d="M42.068,20.428c-0.473,0.348-0.571,1.008-0.218,1.475c0.353,0.466,1.021,0.562,1.493,0.214
		c0.469-0.348,0.569-1.006,0.217-1.472C43.208,20.178,42.54,20.082,42.068,20.428L42.068,20.428z"/>
	<path fill="#FFFFFF" d="M41.951,23.14c-0.298,0.219-0.359,0.633-0.139,0.925c0.221,0.292,0.641,0.354,0.937,0.135
		c0.297-0.217,0.359-0.631,0.138-0.925C42.665,22.982,42.245,22.921,41.951,23.14L41.951,23.14z"/>
</g>
<path fill="#EE5EA2" d="M38.873,9.004c-0.349-0.294-1.146-0.193-1.592-0.32c-0.681-0.166-1.343-0.43-2.017-0.74
	c-1.168-0.472-2.278-1.242-3.502-1.559c-0.377,1.042-0.364,2.179,0.22,3.223c0.385,0.617,0.971,0.947,1.129,1.763
	c0.139,0.726-0.312,1.121-0.379,1.755c-0.049,0.535,0.53,1.199,1.094,1.25c0.896,0.112,1.4-1.152,1.903-1.702
	c0.798-1.003,1.673-1.884,2.461-2.932c0.17-0.232,0.328-0.509,0.595-0.716"/>
<path fill="#EE5EA2" d="M39.513,8.848c0.17-0.423,0.92-0.703,1.251-1.021c0.524-0.462,0.983-1.003,1.433-1.587
	c0.808-0.959,1.42-2.154,2.351-3c0.825,0.745,1.356,1.755,1.337,2.946c-0.047,0.724-0.405,1.287-0.16,2.082
	c0.224,0.705,0.81,0.845,1.17,1.374c0.298,0.45,0.1,1.304-0.371,1.611c-0.739,0.514-1.785-0.368-2.489-0.621
	c-1.182-0.517-2.375-0.888-3.566-1.45c-0.261-0.125-0.532-0.297-0.866-0.356"/>
<path fill="#EE5EA2" d="M38.931,7.028c-0.584,0.145-1.149,0.184-1.368,0.835c-0.253,0.707,0.213,0.842,0.275,1.472
	c0.065,0.63-0.485,0.915,0.242,1.332c0.488,0.228,1.265,0.086,1.716-0.024c1.139-0.23,2.399-0.739,1.74-2.216
	c-0.373-0.902-1.876-1.925-2.84-1.389"/>
<ellipse fill="#010101" cx="30.12" cy="39.946" rx="4.104" ry="4.213"/>
</svg>
